# xmcd
#
# Track frame offsets: 
#        150
#        22374
#        47963
#        78073
#        102828
#        127180
#        151476
#        177954
#        208594
#        219455
#        230449
#        247420
#        273831
#        285698
#        297018
#        307810
#        308331
#        308782
#        309234
#        309700
#        310166
#        310636
#        311118
#        311594
#        312085
#        312562
#        313043
#        313535
#        314004
#        314489
#        314969
#        315475
#        315963
#        316450
#        316928
#        317436
#        317917
#        318407
#        318905
#
# Disc length: 4258 seconds
#
# Revision: 2
# Processed by: cddbd v1.5.2PL0 Copyright (c) Steve Scherf et al.
# Submitted via: ExactAudioCopy v0.95b4
#
DISCID=3110a027
DTITLE=Various Artist - To' Mixeao 6
DYEAR=2001
DGENRE=Merengue
TTITLE0=Todos - To' Mixeao 6 (Pa' La Radio)
TTITLE1=Los Toros Band - La Quiero Ver (Mixeao)
TTITLE2=Oro Solido - La Nalgadita II (Mixeao)
TTITLE3=La Banda Chula - Donde Estan (Mixeao)
TTITLE4=La Banda Gorda - Dame Agua (Mixeao)
TTITLE5=Maremoto - El Toro (Mixeao)
TTITLE6=La Banda X - Pa' Lante, Pa' Tra (Mixeao)
TTITLE7=Todos - To' Mixeao 6 (Pa' Bailar )
TTITLE8=Invento Citronnelle - Dame Mixeao' Aguao
TTITLE9=Invento Citronnelle - 1 Mano Pa' Lante Y Otra Pa' Mixea
TTITLE10=Oro Solido - La Nalgadita II
TTITLE11=Los Toros Band - La Quiero Ver
TTITLE12=La Banda Chula - Donde Estan
TTITLE13=La Banda Gorda - Dame Agua
TTITLE14=Maremoto - El Toro
TTITLE15=Disc Jockeys - Mixealo
TTITLE16=Disc Jockeys - Mixealo
TTITLE17=Disc Jockeys - Mixealo
TTITLE18=Disc Jockeys - Mixealo
TTITLE19=Disc Jockeys - Mixealo
TTITLE20=Disc Jockeys - Mixealo
TTITLE21=Disc Jockeys - Mixealo
TTITLE22=Disc Jockeys - Mixealo
TTITLE23=Disc Jockeys - Mixealo
TTITLE24=Disc Jockeys - Mixealo
TTITLE25=Disc Jockeys - Mixealo
TTITLE26=Disc Jockeys - Mixealo
TTITLE27=Disc Jockeys - Mixealo
TTITLE28=Disc Jockeys - Mixealo
TTITLE29=Disc Jockeys - Mixealo
TTITLE30=Disc Jockeys - Mixealo
TTITLE31=Disc Jockeys - Mixealo
TTITLE32=Disc Jockeys - Mixealo
TTITLE33=Disc Jockeys - Mixealo
TTITLE34=Disc Jockeys - Mixealo
TTITLE35=Disc Jockeys - Mixealo
TTITLE36=Disc Jockeys - Mixealo
TTITLE37=Disc Jockeys - Mixealo
TTITLE38=Disc Jockeys - Mixealo
EXTD=
EXTT0=
EXTT1=
EXTT2=
EXTT3=
EXTT4=
EXTT5=
EXTT6=
EXTT7=
EXTT8=
EXTT9=
EXTT10=
EXTT11=
EXTT12=
EXTT13=
EXTT14=
EXTT15=
EXTT16=
EXTT17=
EXTT18=
EXTT19=
EXTT20=
EXTT21=
EXTT22=
EXTT23=
EXTT24=
EXTT25=
EXTT26=
EXTT27=
EXTT28=
EXTT29=
EXTT30=
EXTT31=
EXTT32=
EXTT33=
EXTT34=
EXTT35=
EXTT36=
EXTT37=
EXTT38=
PLAYORDER=
